<?xml version="1.0" encoding="utf-8"?>
<!-- Generator: Adobe Illustrator 16.0.0, SVG Export Plug-In . SVG Version: 6.00 Build 0)  -->
<!DOCTYPE svg PUBLIC "-//W3C//DTD SVG 1.1 Tiny//EN" "http://www.w3.org/Graphics/SVG/1.1/DTD/svg11-tiny.dtd">
<svg version="1.1" baseProfile="tiny" xmlns="http://www.w3.org/2000/svg" xmlns:xlink="http://www.w3.org/1999/xlink" x="0px"
	 y="0px" width="297.85px" height="121.17px" viewBox="0 0 297.85 121.17" xml:space="preserve">
<g id="Layer_2">
</g>
<g id="Layer_1">
	<g>
		<polygon fill="#FF3D33" points="29.42,1 -0.04,14.17 58.88,14.17 		"/>
		<rect y="57.17" fill="#FF3D33" width="59" height="9"/>
		<rect x="3" y="24.17" fill="#FF3D33" width="7" height="33"/>
		<rect x="18" y="24.17" fill="#FF3D33" width="7" height="33"/>
		<rect x="49" y="24.17" fill="#FF3D33" width="7" height="33"/>
		<rect x="34" y="24.17" fill="#FF3D33" width="7" height="33"/>
		<rect y="16.17" fill="#FF3D33" width="59" height="6"/>
	</g>
	<g>
		<path fill="#FF3D33" d="M66.83,66.66V15.65h18.58c10.06,0,16.47,6.49,16.47,16.76S95.47,49.1,85.41,49.1h-8.23v17.56H66.83z
			 M91.9,32.41c0-4.66-2.99-7.29-8.09-7.29h-6.63v14.5h6.63C88.84,39.63,91.9,37.08,91.9,32.41z"/>
		<path fill="#FF3D33" d="M101.89,48.81c0-10.57,8.16-18.51,18.58-18.51c10.42,0,18.58,7.94,18.58,18.51
			c0,10.57-8.16,18.51-18.58,18.51C110.05,67.32,101.89,59.38,101.89,48.81z M129.07,48.81c0-5.39-3.42-9.4-8.6-9.4
			c-5.25,0-8.67,4.01-8.67,9.4c0,5.47,3.57,9.47,8.67,9.47C125.65,58.28,129.07,54.27,129.07,48.81z"/>
		<path fill="#FF3D33" d="M142.13,66.66V12.01h10.35v54.66H142.13z"/>
		<path fill="#FF3D33" d="M163.06,13.39c3.64,0,6.7,3.06,6.7,6.71c0,3.64-3.06,6.7-6.7,6.7c-3.64,0-6.71-3.06-6.71-6.7
			C156.35,16.45,159.41,13.39,163.06,13.39z M157.74,66.66V31.1h10.42v35.56H157.74z"/>
		<path fill="#FF3D33" d="M175.81,31.1V18.42h10.2V31.1h5.03v9.47h-5.03v26.09h-10.2V40.57h-4.96V31.1H175.81z"/>
		<path fill="#FF3D33" d="M199.08,13.39c3.64,0,6.7,3.06,6.7,6.71c0,3.64-3.06,6.7-6.7,6.7s-6.71-3.06-6.71-6.7
			C192.38,16.45,195.44,13.39,199.08,13.39z M193.76,66.66V31.1h10.42v35.56H193.76z"/>
		<path fill="#FF3D33" d="M232.23,43.12c-1.82-1.97-3.43-3.35-6.34-3.35c-4.74,0-8.09,3.79-8.09,9.04c0,5.47,3.35,8.89,8.09,8.89
			c2.92,0,5.1-1.6,6.63-3.79l7.65,5.83c-3.64,4.96-8.02,7.58-14.28,7.58c-10.71,0-18.29-8.16-18.29-18.51s7.58-18.51,18.22-18.51
			c5.61,0,10.06,2.41,13.48,6.27L232.23,43.12z"/>
		<path fill="#FF3D33" d="M274.98,66.66c-4.37,0-7.36-2.33-8.96-6.05c-2.04,3.42-6.34,6.78-12.68,6.78
			c-7.87,0-11.88-5.1-11.88-10.42c0-5.9,4.81-11.66,14.72-11.66c2.99,0,5.9,0.36,8.6,0.87v-1.17c0-3.5-2.4-5.83-6.34-5.83
			c-2.77,0-5.03,1.24-6.49,3.57l-7.14-5.32c0,0,4.08-7.29,14.14-7.29c9.91,0,15.96,5.9,15.96,14.43v10.71
			c0,1.31,0.88,2.11,2.19,2.11h1.46v9.25H274.98z M264.78,52.53c-1.89-0.36-4.23-0.73-5.61-0.73c-4.15,0-7.36,1.38-7.36,4.3
			c0,1.97,1.46,3.28,4.15,3.28C260.26,59.38,263.47,56.39,264.78,52.53z"/>
		<path fill="#FF3D33" d="M281.17,66.66V12.01h10.35v54.66H281.17z"/>
		<path fill="#FF3D33" d="M66.83,120.25V69.24h18.58c10.06,0,16.47,6.49,16.47,16.76c0,6.56-2.62,11.44-7.07,14.21l8.75,20.04H92.19
			l-7.14-17.56h-7.87v17.56H66.83z M91.9,86c0-4.66-2.99-7.29-8.09-7.29h-6.63v14.5h6.63C88.84,93.22,91.9,90.67,91.9,86z"/>
		<path fill="#FF3D33" d="M114.1,104.66c0.73,5.9,4.37,8.09,8.38,8.09c3.94,0,6.63-1.82,8.38-4.37l6.78,4.88
			c-3.79,5.1-7.65,7.72-15.74,7.72c-10.42,0-18.07-7.65-18.07-18.58c0-10.13,6.85-18.51,17.78-18.51c12.02,0,16.76,8.6,16.76,19.53
			v1.24H114.1z M114.39,98.39h14.06c-0.66-4.08-3.79-6.2-6.92-6.2C118.25,92.2,115.41,94.24,114.39,98.39z"/>
		<path fill="#FF3D33" d="M164.36,96.72c-1.82-1.97-3.43-3.35-6.34-3.35c-4.74,0-8.09,3.79-8.09,9.04c0,5.47,3.35,8.89,8.09,8.89
			c2.92,0,5.1-1.6,6.63-3.79l7.65,5.83c-3.64,4.96-8.02,7.58-14.28,7.58c-10.71,0-18.29-8.16-18.29-18.51s7.58-18.51,18.22-18.51
			c5.61,0,10.06,2.41,13.48,6.27L164.36,96.72z"/>
		<path fill="#FF3D33" d="M184.34,120.25h-10.2V84.69h10.2v2.41c0,0.8-0.15,2.11-0.37,3.5c2.04-3.86,5.25-6.78,9.91-6.78v9.98
			c-5.32,0-9.55,3.06-9.55,8.89V120.25z"/>
		<path fill="#FF3D33" d="M229.28,120.25h-10.2v-2.41c0-0.58,0.07-1.46,0.22-2.48c-2.33,3.35-5.98,5.76-10.79,5.76
			c-7.36,0-12.9-5.76-12.9-15.3V84.69h10.28v20.55c0,4.96,3.13,7.51,6.56,7.51c3.06,0,6.41-2.41,6.63-7.21V84.69h10.2V120.25z"/>
		<path fill="#FF3D33" d="M239.98,66.98c3.64,0,6.7,3.06,6.7,6.71c0,3.64-3.06,6.7-6.7,6.7s-6.71-3.06-6.71-6.7
			C233.27,70.04,236.33,66.98,239.98,66.98z M234.66,120.25V84.69h10.42v35.56H234.66z"/>
		<path fill="#FF3D33" d="M252.73,84.69V72.01h10.2v12.68h5.03v9.47h-5.03v26.09h-10.2V94.17h-4.96v-9.47H252.73z"/>
		<path fill="#FF3D33" d="M273.32,108.3c2.48,2.84,6.41,4.01,9.84,4.01c2.19,0,3.79-0.88,3.79-2.19c0-1.82-1.82-2.7-4.81-3.57
			c-5.54-1.6-12.39-4.66-12.39-11.88c0-6.85,6.63-10.71,12.61-10.71c5.39,0,9.18,1.82,12.39,5.17l-5.68,6.12
			c-1.53-1.68-4.37-3.21-6.49-3.21c-1.89,0-3.28,0.88-3.28,2.26c0,1.75,2.04,2.62,5.25,3.57c5.39,1.6,12.32,4.96,12.32,11.73
			c0,6.7-5.76,11.37-13.77,11.37c-6.41,0-11.66-1.82-15.52-5.98L273.32,108.3z"/>
	</g>
</g>
</svg>
