<?xml version="1.0" encoding="utf-8"?>
<!-- Generator: Adobe Illustrator 16.0.0, SVG Export Plug-In . SVG Version: 6.00 Build 0)  -->
<!DOCTYPE svg PUBLIC "-//W3C//DTD SVG 1.1 Tiny//EN" "http://www.w3.org/Graphics/SVG/1.1/DTD/svg11-tiny.dtd">
<svg version="1.1" baseProfile="tiny" xmlns="http://www.w3.org/2000/svg" xmlns:xlink="http://www.w3.org/1999/xlink" x="0px"
	 y="0px" width="26.72px" height="21.24px" viewBox="0 0 26.72 21.24" xml:space="preserve">
<g id="Layer_2">
</g>
<g id="Layer_1">
	<g>
		<path fill="#FF3D33" d="M26.63,9.69c0-0.01,0-0.02,0-0.03c0,0,0-0.01,0-0.02c0-0.01,0-0.02,0-0.02c0-0.01,0-0.02,0-0.03
			c0,0,0,0,0,0c-0.03-0.2-0.13-0.39-0.28-0.54c-0.84-1-1.84-1.89-2.86-2.7c-2.2-1.75-4.71-3.21-7.48-3.8
			c-1.6-0.34-3.21-0.36-4.82-0.07C9.72,2.74,8.3,3.29,6.98,3.96c-2.07,1.06-3.96,2.52-5.6,4.15c-0.3,0.3-0.61,0.61-0.88,0.94
			c-0.37,0.44-0.37,0.95,0,1.39c0.84,1,1.85,1.89,2.87,2.7c2.2,1.75,4.71,3.21,7.48,3.8c1.6,0.34,3.21,0.35,4.82,0.07
			c1.46-0.26,2.88-0.81,4.2-1.48c2.07-1.06,3.96-2.51,5.6-4.15c0.3-0.3,0.61-0.61,0.88-0.94c0.15-0.15,0.24-0.34,0.28-0.54
			c0,0,0,0,0,0c0-0.01,0-0.02,0-0.03s0-0.02,0-0.03c0,0,0-0.01,0-0.01c0-0.01,0-0.02,0-0.03c0-0.02,0-0.03,0-0.05
			S26.63,9.71,26.63,9.69z M13.43,14.82c-2.81,0-5.08-2.28-5.08-5.08s2.28-5.08,5.08-5.08s5.08,2.27,5.08,5.08
			S16.23,14.82,13.43,14.82z"/>
		<circle fill="#FF3D33" cx="13.43" cy="9.74" r="1.68"/>
	</g>
</g>
</svg>
