<?xml version="1.0" encoding="utf-8"?>
<!-- Generator: Adobe Illustrator 16.0.0, SVG Export Plug-In . SVG Version: 6.00 Build 0)  -->
<!DOCTYPE svg PUBLIC "-//W3C//DTD SVG 1.1 Tiny//EN" "http://www.w3.org/Graphics/SVG/1.1/DTD/svg11-tiny.dtd">
<svg version="1.1" baseProfile="tiny" xmlns="http://www.w3.org/2000/svg" xmlns:xlink="http://www.w3.org/1999/xlink" x="0px"
	 y="0px" width="26.72px" height="21.24px" viewBox="0 0 26.72 21.24" xml:space="preserve">
<g id="Layer_2">
</g>
<g id="Layer_1">
	<g>
		<g>
			<path fill="#FF3D33" d="M13.83,10.71c-0.05,0.1-0.2,0.18-0.31,0.18L1.76,10.46c-0.12,0-0.13-0.06-0.03-0.11L19.26,0.23
				c0.1-0.06,0.14-0.02,0.09,0.08L13.83,10.71z"/>
		</g>
		<g>
			<path fill="#FF3D33" d="M3.05,11.81c-0.11,0-0.16,0.07-0.1,0.17l5.24,9.08c0.06,0.1,0.18,0.13,0.28,0.07l16.75-9.67
				c0.1-0.06,0.13-0.18,0.08-0.28L20.06,2.1c-0.05-0.1-0.14-0.09-0.2,0l-5.27,9.94c-0.05,0.1-0.19,0.17-0.3,0.17L3.05,11.81z"/>
		</g>
	</g>
</g>
</svg>
