<?xml version="1.0" encoding="utf-8"?>
<!-- Generator: Adobe Illustrator 16.0.0, SVG Export Plug-In . SVG Version: 6.00 Build 0)  -->
<!DOCTYPE svg PUBLIC "-//W3C//DTD SVG 1.1 Tiny//EN" "http://www.w3.org/Graphics/SVG/1.1/DTD/svg11-tiny.dtd">
<svg version="1.1" baseProfile="tiny" xmlns="http://www.w3.org/2000/svg" xmlns:xlink="http://www.w3.org/1999/xlink" x="0px"
	 y="0px" width="26.72px" height="21.24px" viewBox="0 0 26.72 21.24" xml:space="preserve">
<g id="Layer_2">
</g>
<g id="Layer_1">
	<g>
		<g>
			<path fill="#FF3D33" d="M13.51,10.64c0.07,0.03,0.12,0.05,0.12,0.05C13.63,10.69,13.56,10.66,13.51,10.64z"/>
			<path fill="#FF3D33" d="M13.48,10.63c0.01,0,0.02,0.01,0.03,0.01c-0.02-0.01-0.04-0.02-0.06-0.02l0,0
				C13.47,10.62,13.47,10.63,13.48,10.63z"/>
		</g>
		<path fill="#FF3D33" d="M3.99,5.47c-0.58,0-1.07,0.5-1.07,1.12V12c0,0.62,0.48,1.12,1.07,1.12h1.95c0.59,0,1.08-0.26,1.08-0.59
			c0-0.33,0.48-0.59,1.07-0.59H19c0.58,0,1.07,0.26,1.07,0.59c0,0.33,0.48,0.59,1.07,0.59h1.95c0.59,0,1.07-0.5,1.07-1.12V6.59
			c0-0.62-0.48-1.12-1.07-1.12H3.99z"/>
		<rect x="7.06" y="-0.15" fill="#FF3D33" width="12.98" height="4.93"/>
		<path fill="#FF3D33" d="M7.98,13.5v7.96h11.13V13.5H7.98z M8.78,14.48h5.79v0.32H8.78V14.48z M8.78,15.59h5.79v0.32H8.78V15.59z
			 M8.78,16.7h8.05v0.32H8.78V16.7z M8.78,17.81h8.6v0.32h-8.6V17.81z M18.14,20.35H8.78v-0.32h9.36V20.35z M18.14,19.24H8.78v-0.32
			h9.36V19.24z"/>
	</g>
</g>
</svg>
