<?xml version="1.0" encoding="utf-8"?>
<!-- Generator: Adobe Illustrator 16.0.0, SVG Export Plug-In . SVG Version: 6.00 Build 0)  -->
<!DOCTYPE svg PUBLIC "-//W3C//DTD SVG 1.1//EN" "http://www.w3.org/Graphics/SVG/1.1/DTD/svg11.dtd">
<svg version="1.1" id="Layer_1" xmlns="http://www.w3.org/2000/svg" xmlns:xlink="http://www.w3.org/1999/xlink" x="0px" y="0px"
	 width="379.133px" height="294.66px" viewBox="0 0 379.133 294.66" enable-background="new 0 0 379.133 294.66"
	 xml:space="preserve">
<g>
	<polygon opacity="0.1" fill="#FFFFFF" points="145.22,7.66 140.133,7.66 140.133,23.004 134.674,17.364 128.553,14.741 
		121.854,18.242 125.83,22.128 124.226,22.511 119.51,17.849 119.541,17.822 113.065,14.812 109.812,15.403 102.691,8.323 
		99.902,6.688 96.682,9.91 98.316,12.696 99.514,13.896 100.715,16.354 100.744,17.66 98.801,17.66 92.839,9.66 88.133,9.66 
		88.133,12.429 83.672,8.323 80.781,7.714 77.477,11.66 77.083,11.66 74.954,7.66 70.133,7.66 70.133,21.942 66.031,18.02 
		59.014,14.812 53.74,16.442 48.102,11.722 41.611,9.66 33.133,9.66 33.133,10.197 32.133,9.748 32.133,9.66 32.759,9.66 
		31.133,8.932 31.133,8.66 31.351,8.66 32.055,8.66 30.133,7.799 30.133,7.66 30.646,7.66 28.416,6.66 29.941,6.66 15.088,0 
		0.234,6.66 3.17,6.66 0.939,7.66 0.133,7.66 0.133,10.66 1.133,10.66 1.133,11.66 1.133,12.66 2.133,12.66 2.133,28.66 
		3.133,28.66 3.133,29.66 0.133,29.66 0.133,32.66 1.133,32.66 1.133,33.66 1.133,34.66 2.133,34.66 3.133,34.66 3.133,35.66 
		3.133,36.66 4.133,36.66 4.133,37.66 5.133,37.66 5.133,38.66 6.133,38.66 6.133,39.66 7.133,39.66 8.133,39.66 8.133,40.66 
		8.133,41.66 9.133,41.66 9.133,42.66 10.133,42.66 10.133,43.66 11.133,43.66 11.133,44.66 12.133,44.66 13.133,44.66 
		13.133,45.66 13.133,46.66 14.133,46.66 14.133,47.66 15.133,47.66 15.133,48.66 16.133,48.66 16.133,49.66 17.133,49.66 
		17.133,50.66 18.133,50.66 18.133,51.66 19.133,51.66 19.133,52.66 20.133,52.66 20.133,53.66 21.133,53.66 21.133,54.66 
		22.133,54.66 22.133,55.66 23.133,55.66 23.133,56.66 24.133,56.66 25.133,56.66 25.133,57.66 25.133,58.66 26.133,58.66 
		26.133,59.66 27.133,59.66 27.133,60.66 28.133,60.66 28.133,61.66 29.133,61.66 29.133,62.66 30.133,62.66 30.133,63.66 
		31.133,63.66 31.133,64.66 32.133,64.66 32.133,65.66 33.133,65.66 33.133,66.66 34.133,66.66 34.133,67.66 35.133,67.66 
		35.133,68.66 36.133,68.66 36.133,69.66 37.133,69.66 37.133,70.66 38.133,70.66 38.133,71.66 39.133,71.66 39.133,72.66 
		40.133,72.66 40.133,73.66 41.133,73.66 41.133,74.66 42.133,74.66 42.133,75.66 43.133,75.66 43.133,76.66 44.133,76.66 
		44.133,77.66 45.133,77.66 45.133,78.66 46.133,78.66 46.133,79.66 47.133,79.66 47.133,80.66 48.133,80.66 48.133,81.66 
		49.133,81.66 49.133,82.66 50.133,82.66 50.133,83.66 51.133,83.66 51.133,84.66 52.133,84.66 52.133,85.66 53.133,85.66 
		53.133,86.66 54.133,86.66 54.133,87.66 55.133,87.66 55.133,88.66 56.133,88.66 56.133,89.66 57.133,89.66 57.133,90.66 
		58.133,90.66 58.133,91.66 59.133,91.66 59.133,92.66 60.133,92.66 60.133,93.66 61.133,93.66 61.133,94.66 62.133,94.66 
		62.133,95.66 63.133,95.66 63.133,96.66 64.133,96.66 64.133,97.66 65.133,97.66 65.133,98.66 66.133,98.66 66.133,99.66 
		67.133,99.66 67.133,100.66 68.133,100.66 68.133,101.66 69.133,101.66 69.133,102.66 70.133,102.66 70.133,103.66 71.133,103.66 
		71.133,104.66 72.133,104.66 72.133,105.66 73.133,105.66 73.133,106.66 74.133,106.66 74.133,107.66 74.133,108.66 75.133,108.66 
		76.133,108.66 76.133,109.66 77.133,109.66 77.133,110.66 78.133,110.66 78.133,111.66 79.133,111.66 79.133,112.66 79.133,113.66 
		80.133,113.66 81.133,113.66 81.133,114.66 82.133,114.66 82.133,115.66 83.133,115.66 83.133,116.66 84.133,116.66 84.133,117.66 
		85.133,117.66 85.133,118.66 86.133,118.66 86.133,119.66 86.133,120.66 87.133,120.66 88.133,120.66 88.133,121.66 89.133,121.66 
		89.133,122.66 90.133,122.66 90.133,123.66 91.133,123.66 91.133,124.66 91.133,125.66 92.133,125.66 93.133,125.66 93.133,126.66 
		93.133,127.66 94.133,127.66 95.133,127.66 95.133,128.66 96.133,128.66 96.133,129.66 96.133,130.66 97.133,130.66 98.133,130.66 
		98.133,131.66 98.133,132.66 99.133,132.66 100.133,132.66 100.133,133.66 101.133,133.66 101.133,134.66 102.133,134.66 
		102.133,135.66 103.133,135.66 103.133,136.66 103.133,137.66 104.133,137.66 105.133,137.66 105.133,138.66 105.133,139.66 
		106.133,139.66 107.133,139.66 107.133,140.66 108.133,140.66 108.133,141.66 108.133,142.66 109.133,142.66 110.133,142.66 
		110.133,143.66 110.133,144.66 111.133,144.66 112.133,144.66 112.133,145.66 112.133,146.66 113.133,146.66 113.133,147.66 
		114.133,147.66 115.133,147.66 115.133,148.66 115.133,149.66 116.133,149.66 117.133,149.66 117.133,150.66 117.133,151.66 
		118.133,151.66 118.133,152.66 119.133,152.66 120.133,152.66 120.133,153.66 120.133,154.66 121.133,154.66 122.133,154.66 
		122.133,155.66 122.133,156.66 123.133,156.66 124.133,156.66 124.133,157.66 124.133,158.66 125.133,158.66 125.133,159.66 
		126.133,159.66 127.133,159.66 127.133,160.66 127.133,161.66 128.133,161.66 129.133,161.66 129.133,162.66 129.133,163.66 
		130.133,163.66 130.133,164.66 131.133,164.66 131.133,165.66 132.133,165.66 132.133,166.66 133.133,166.66 134.133,166.66 
		134.133,167.66 134.133,168.66 135.133,168.66 135.133,169.66 136.133,169.66 136.133,170.66 137.133,170.66 137.133,171.66 
		138.133,171.66 139.133,171.66 139.133,172.66 139.133,173.66 140.133,173.66 141.133,173.66 141.133,174.66 141.133,175.66 
		142.133,175.66 142.133,176.66 143.133,176.66 143.133,177.66 144.133,177.66 144.133,178.66 145.133,178.66 146.133,178.66 
		146.133,179.66 146.133,180.66 147.133,180.66 147.133,181.66 148.133,181.66 148.133,182.66 149.133,182.66 149.133,183.66 
		150.133,183.66 151.133,183.66 151.133,184.66 151.133,185.66 152.133,185.66 152.133,186.66 153.133,186.66 153.133,187.66 
		154.133,187.66 154.133,188.66 155.133,188.66 155.133,189.66 156.133,189.66 156.133,190.66 157.133,190.66 157.133,191.66 
		158.133,191.66 158.133,192.66 159.133,192.66 159.133,193.66 160.133,193.66 160.133,194.66 161.133,194.66 161.133,195.66 
		162.133,195.66 162.133,196.66 163.133,196.66 163.133,197.66 164.133,197.66 164.133,198.66 165.133,198.66 165.133,199.66 
		166.133,199.66 166.133,200.66 167.133,200.66 167.133,201.66 168.133,201.66 168.133,202.66 169.133,202.66 169.133,203.66 
		170.133,203.66 170.133,204.66 171.133,204.66 171.133,205.66 172.133,205.66 172.133,206.66 173.133,206.66 173.133,207.66 
		174.133,207.66 174.133,208.66 175.133,208.66 175.133,209.66 176.133,209.66 176.133,210.66 177.133,210.66 177.133,211.66 
		178.133,211.66 178.133,212.66 179.133,212.66 179.133,213.66 180.133,213.66 180.133,214.66 181.133,214.66 181.133,215.66 
		182.133,215.66 182.133,216.66 183.133,216.66 183.133,217.66 184.133,217.66 184.133,218.66 185.133,218.66 185.133,219.66 
		186.133,219.66 186.133,220.66 187.133,220.66 187.133,221.66 188.133,221.66 188.133,222.66 189.133,222.66 189.133,223.66 
		190.133,223.66 190.133,224.66 191.133,224.66 191.133,225.66 192.133,225.66 192.133,226.66 193.133,226.66 193.133,227.66 
		194.133,227.66 194.133,228.66 195.133,228.66 195.133,229.66 196.133,229.66 196.133,230.66 197.133,230.66 197.133,231.66 
		198.133,231.66 198.133,232.66 199.133,232.66 199.133,233.66 200.133,233.66 200.133,234.66 201.133,234.66 201.133,235.66 
		202.133,235.66 202.133,236.66 203.133,236.66 203.133,237.66 204.133,237.66 204.133,238.66 205.133,238.66 205.133,239.66 
		206.133,239.66 206.133,240.66 207.133,240.66 207.133,241.66 208.133,241.66 208.133,242.66 209.133,242.66 209.133,243.66 
		210.133,243.66 210.133,244.66 211.133,244.66 211.133,245.66 212.133,245.66 212.133,246.66 212.133,247.66 213.133,247.66 
		214.133,247.66 214.133,248.66 215.133,248.66 215.133,249.66 216.133,249.66 216.133,250.66 217.133,250.66 217.133,251.66 
		218.133,251.66 218.133,252.66 219.133,252.66 219.133,253.66 219.133,254.66 220.133,254.66 221.133,254.66 221.133,255.66 
		222.133,255.66 222.133,256.66 223.133,256.66 223.133,257.66 224.133,257.66 224.133,258.66 224.133,259.66 225.133,259.66 
		226.133,259.66 226.133,260.66 227.133,260.66 227.133,261.66 228.133,261.66 228.133,262.66 229.133,262.66 229.133,263.66 
		229.133,264.66 230.133,264.66 231.133,264.66 231.133,265.66 231.133,266.66 232.133,266.66 233.133,266.66 233.133,267.66 
		234.133,267.66 234.133,268.66 234.133,269.66 235.133,269.66 236.133,269.66 236.133,270.66 236.133,271.66 237.133,271.66 
		238.133,271.66 238.133,272.66 238.133,273.66 239.133,273.66 240.133,273.66 240.133,274.66 241.133,274.66 241.133,275.66 
		241.133,276.66 242.133,276.66 243.133,276.66 243.133,277.66 243.133,278.66 244.133,278.66 245.133,278.66 245.133,279.66 
		246.133,279.66 246.133,280.66 246.133,281.66 247.133,281.66 248.133,281.66 248.133,282.66 248.133,283.66 249.133,283.66 
		250.133,283.66 250.133,284.66 250.133,285.66 251.133,285.66 251.133,286.66 252.133,286.66 253.133,286.66 253.133,287.66 
		253.133,288.66 254.133,288.66 255.133,288.66 255.133,289.66 255.133,290.66 256.133,290.66 257.133,290.66 257.133,291.66 
		257.133,292.66 258.133,292.66 258.133,293.66 264.957,293.66 265.946,294.66 379.133,294.66 379.133,265.759 379.133,239.356 	"/>
	<g>
		<g>
			<g>
				<polygon fill="#FFFFFF" points="14.719,0.182 0.229,6.679 29.207,6.679 				"/>
				
					<line fill="#363F4D" stroke="#FFFFFF" stroke-width="3.0513" stroke-miterlimit="10" x1="0" y1="30.688" x2="29.328" y2="30.688"/>
				
					<line fill="#363F4D" stroke="#FFFFFF" stroke-width="3.0513" stroke-miterlimit="10" x1="25.247" y1="27.979" x2="25.247" y2="11.845"/>
				
					<line fill="#363F4D" stroke="#FFFFFF" stroke-width="3.0513" stroke-miterlimit="10" x1="18.362" y1="11.845" x2="18.362" y2="27.979"/>
				
					<line fill="#363F4D" stroke="#FFFFFF" stroke-width="3.0513" stroke-miterlimit="10" x1="11.221" y1="27.979" x2="11.221" y2="11.845"/>
				
					<line fill="#363F4D" stroke="#FFFFFF" stroke-width="3.0513" stroke-miterlimit="10" x1="4.082" y1="27.979" x2="4.082" y2="11.845"/>
				
					<line fill="#363F4D" stroke="#FFFFFF" stroke-width="3.0513" stroke-miterlimit="10" x1="0" y1="9.138" x2="29.328" y2="9.138"/>
			</g>
		</g>
	</g>
	<g>
		<text transform="matrix(1 0 0 1 30.1748 32.2822)"><tspan x="0" y="0" fill="#FFFFFF" font-family="'Edmondsans-Bold'" font-size="35.0117" letter-spacing="-2">P</tspan><tspan x="18.941" y="0" fill="#FFFFFF" font-family="'Edmondsans-Bold'" font-size="35.0117" letter-spacing="-1">olit</tspan><tspan x="65.05" y="0" fill="#FFFFFF" font-family="'Edmondsans-Bold'" font-size="35.0117" letter-spacing="-2">i</tspan><tspan x="72.893" y="0" fill="#FFFFFF" font-family="'Edmondsans-Bold'" font-size="35.0117" letter-spacing="-2">c</tspan><tspan x="88.647" y="0" fill="#FFFFFF" font-family="'Edmondsans-Bold'" font-size="35.0117">a</tspan><tspan x="108.219" y="0" fill="#FFFFFF" font-family="'Edmondsans-Bold'" font-size="35.0117">l</tspan><tspan x="-1.909" y="27.146" fill="#FFFFFF" font-family="'Edmondsans-Bold'" font-size="34.793">R</tspan><tspan x="19.454" y="27.146" fill="#FFFFFF" font-family="'Edmondsans-Bold'" font-size="34.793" letter-spacing="-1">ecr</tspan><tspan x="65.31" y="27.146" fill="#FFFFFF" font-family="'Edmondsans-Bold'" font-size="34.793" letter-spacing="-2">uit</tspan><tspan x="101.32" y="27.146" fill="#FFFFFF" font-family="'Edmondsans-Bold'" font-size="34.793">s</tspan><tspan x="72.488" y="42.367" fill="#FFFFFF" font-family="'Edmondsans-Bold'" font-size="21.2931">.</tspan><tspan x="77.769" y="42.367" fill="#FFFFFF" font-family="'Edmondsans-Bold'" font-size="21.2931">co</tspan><tspan x="99.551" y="42.367" fill="#FFFFFF" font-family="'Edmondsans-Bold'" font-size="21.2931">m</tspan></text>
	</g>
</g>
</svg>
