<?xml version="1.0" encoding="utf-8"?>
<!-- Generator: Adobe Illustrator 16.0.0, SVG Export Plug-In . SVG Version: 6.00 Build 0)  -->
<!DOCTYPE svg PUBLIC "-//W3C//DTD SVG 1.1//EN" "http://www.w3.org/Graphics/SVG/1.1/DTD/svg11.dtd">
<svg version="1.1" id="Layer_1" xmlns="http://www.w3.org/2000/svg" xmlns:xlink="http://www.w3.org/1999/xlink" x="0px" y="0px"
	 width="139.199px" height="139.201px" viewBox="0 0 139.199 139.201" enable-background="new 0 0 139.199 139.201"
	 xml:space="preserve">
<g>
	<path fill="none" stroke="#FFFFFF" stroke-width="11.433" stroke-miterlimit="10" d="M94.328,50.021
		c0-24.469-19.838-44.306-44.305-44.306c-24.47,0-44.307,19.837-44.307,44.306c0,24.465,19.837,44.307,44.307,44.307
		c12.225,0,23.299-4.958,31.312-12.965l0.026-0.026C89.369,73.322,94.328,62.248,94.328,50.021z"/>
	<path fill="#FFFFFF" stroke="#FFFFFF" stroke-width="11.433" stroke-miterlimit="10" d="M83.246,79.452l-1.884,1.885
		c-0.011,0.007-0.019,0.019-0.019,0.019l-1.893,1.892l47.87,47.869l3.794-3.795L83.246,79.452z"/>
	<path fill="#FFFFFF" stroke="#FFFFFF" stroke-width="11.433" stroke-miterlimit="10" d="M81.362,81.337l-0.026,0.026
		C81.336,81.363,81.352,81.344,81.362,81.337z"/>
</g>
</svg>
