<?xml version="1.0" encoding="utf-8"?>
<!-- Generator: Adobe Illustrator 16.0.0, SVG Export Plug-In . SVG Version: 6.00 Build 0)  -->
<!DOCTYPE svg PUBLIC "-//W3C//DTD SVG 1.1 Tiny//EN" "http://www.w3.org/Graphics/SVG/1.1/DTD/svg11-tiny.dtd">
<svg version="1.1" baseProfile="tiny" xmlns="http://www.w3.org/2000/svg" xmlns:xlink="http://www.w3.org/1999/xlink" x="0px"
	 y="0px" width="26.72px" height="21.24px" viewBox="0 0 26.72 21.24" xml:space="preserve">
<g id="Layer_2">
</g>
<g id="Layer_1">
	<g>
		<g>
			<path fill="#FF3D33" d="M13.54,10.61c0.07,0.03,0.12,0.05,0.12,0.05C13.66,10.65,13.6,10.63,13.54,10.61z"/>
			<path fill="#FF3D33" d="M13.51,10.6c0.01,0,0.02,0.01,0.04,0.01c-0.02-0.01-0.04-0.01-0.05-0.02v0
				C13.5,10.59,13.5,10.59,13.51,10.6z"/>
		</g>
		<path fill="#FF3D33" d="M16.64,7.29c0.33,0.36,0.33,0.94,0,1.3l-4.93,5.37c-0.33,0.36-0.86,0.36-1.19-0.01l0,0
			c-0.33-0.35-0.33-0.94,0-1.29l4.93-5.37C15.78,6.93,16.31,6.93,16.64,7.29L16.64,7.29z"/>
		<path fill="#FF3D33" d="M8.41,18.15c-0.41,0.45-1.08,0.45-1.49,0l-0.29-0.32c-0.41-0.45-0.41-1.17,0-1.62l2.38-2.59
			c0.3-0.38,2.19-2.12,1.57-3.15c-0.61-1.03-2.34,0.11-3.22,1.07l-2.51,2.73c-1.39,1.52-1.4,3.98,0,5.51l0.29,0.32
			c1.4,1.52,3.66,1.52,5.06,0l2.51-2.73c0.91-0.99,1.91-2.82,0.94-3.65c-0.97-0.83-2.11,1.15-2.75,1.73L8.41,18.15z"/>
		<path fill="#FF3D33" d="M18.74,3.09c0.42-0.45,1.08-0.45,1.49,0l0.3,0.32c0.41,0.45,0.41,1.17,0,1.62l-2.38,2.59
			c-0.3,0.39-2.18,2.12-1.57,3.15c0.61,1.03,2.34-0.11,3.22-1.06l2.51-2.73c1.4-1.52,1.4-3.99,0-5.51l-0.29-0.32
			c-1.4-1.52-3.66-1.52-5.06,0l-2.51,2.73c-0.91,0.99-1.91,2.82-0.94,3.65c0.97,0.82,2.11-1.15,2.75-1.73L18.74,3.09z"/>
	</g>
</g>
</svg>
