<?xml version="1.0" encoding="utf-8"?>
<!-- Generator: Adobe Illustrator 16.0.0, SVG Export Plug-In . SVG Version: 6.00 Build 0)  -->
<!DOCTYPE svg PUBLIC "-//W3C//DTD SVG 1.1//EN" "http://www.w3.org/Graphics/SVG/1.1/DTD/svg11.dtd">
<svg version="1.1" id="Layer_1" xmlns="http://www.w3.org/2000/svg" xmlns:xlink="http://www.w3.org/1999/xlink" x="0px" y="0px"
	 width="27.59px" height="28.088px" viewBox="0 0 27.59 28.088" enable-background="new 0 0 27.59 28.088" xml:space="preserve">
<g id="Your_Icon_12_">
	<g>
		<g>
			<g>
				<g>
					<path fill="#A2B3BF" d="M23.427,16.949c1.854-0.311,3.335-0.342,3.335-0.342c0.456-0.01,0.828-0.389,0.828-0.844v-2.951
						c0-0.455-0.371-0.859-0.824-0.898c0,0-2.141-0.184-3.301-0.467c-0.094-0.021-0.094-0.021-0.094-0.021
						c-0.098-0.041-0.252-0.287-0.345-0.551c-0.094-0.264-0.33-1.197-0.259-1.521c0,0,0,0,0.221-0.311
						c1.09-1.529,2.093-2.574,2.093-2.574c0.312-0.328,0.308-0.861-0.014-1.182l-2.088-2.088c-0.321-0.32-0.853-0.326-1.182-0.012
						c0,0-1.14,1.092-2.673,1.939c-0.336,0.188-0.336,0.188-0.336,0.188c-0.411,0.029-0.967-0.043-1.233-0.16
						c-0.269-0.117-1.021-0.424-1.043-0.5c0,0,0,0-0.012-0.074c-0.31-1.852-0.345-3.752-0.345-3.752C16.149,0.373,15.77,0,15.315,0
						h-2.95c-0.455,0-0.834,0.373-0.844,0.828c0,0-0.038,2.031-0.521,3.717c-0.031,0.104-0.031,0.104-0.031,0.104
						c-0.05,0.105-0.244,0.248-0.433,0.312c-0.188,0.066-1.046,0.258-1.5,0.25c0,0-0.038-0.002-0.428-0.217
						c-1.534-0.85-2.676-1.939-2.676-1.939C5.604,2.74,5.072,2.746,4.75,3.068L2.664,5.154c-0.321,0.32-0.328,0.854-0.013,1.182
						c0,0,1.002,1.045,2.092,2.574c0.198,0.277,0.198,0.277,0.198,0.277c0.077,0.291,0.031,0.764-0.102,1.051
						c-0.133,0.285-0.51,1.117-0.633,1.176c0,0,0,0-0.117,0.033c-1.685,0.484-3.263,0.52-3.263,0.52C0.373,11.977,0,12.357,0,12.812
						v2.951c0,0.453,0.373,0.834,0.827,0.844c0,0,1.448,0.029,3.301,0.342c0.091,0.014,0.091,0.014,0.091,0.014
						c0.093,0.025,0.25,0.283,0.35,0.572s0.366,1.293,0.298,1.631c0,0,0,0-0.23,0.322c-1.091,1.527-2.092,2.574-2.092,2.574
						c-0.315,0.328-0.31,0.859,0.013,1.182l2.087,2.088c0.322,0.32,0.854,0.326,1.182,0.012c0,0,1.141-1.092,2.675-1.939
						c0.384-0.215,0.406-0.215,0.406-0.215c0.455-0.01,0.98,0.045,1.169,0.125c0.188,0.08,0.761,0.383,0.843,0.533
						c0,0,0,0,0.042,0.152c0.484,1.684,0.52,3.26,0.52,3.26c0.009,0.457,0.388,0.828,0.843,0.828h2.951
						c0.456,0,0.836-0.371,0.845-0.828c0,0,0.032-1.445,0.342-3.299c0.02-0.104,0.02-0.104,0.02-0.104
						c0.028-0.105,0.266-0.262,0.526-0.348c0.261-0.088,1.293-0.355,1.746-0.338c0,0,0,0,0.371,0.207
						c1.535,0.85,2.675,1.939,2.675,1.939c0.328,0.314,0.86,0.309,1.182-0.012l2.088-2.088c0.321-0.322,0.326-0.854,0.013-1.184
						c0,0-1.003-1.043-2.092-2.572c-0.232-0.326-0.232-0.326-0.232-0.326c-0.07-0.336-0.026-0.84,0.096-1.113
						c0.121-0.273,0.434-1.043,0.505-1.062C23.356,16.961,23.356,16.961,23.427,16.949z M13.812,20.086
						c-3.211,0-5.813-2.6-5.813-5.811c0-3.213,2.603-5.814,5.813-5.814c3.21,0,5.812,2.602,5.812,5.814
						C19.623,17.486,17.021,20.086,13.812,20.086z"/>
					<path fill="#A2B3BF" d="M23.427,16.949c1.854-0.311,3.335-0.342,3.335-0.342c0.456-0.01,0.828-0.389,0.828-0.844v-2.951
						c0-0.455-0.371-0.859-0.824-0.898c0,0-2.141-0.184-3.301-0.467c-0.094-0.021-0.094-0.021-0.094-0.021
						c-0.098-0.041-0.252-0.287-0.345-0.551c-0.094-0.264-0.33-1.197-0.259-1.521c0,0,0,0,0.221-0.311
						c1.09-1.529,2.093-2.574,2.093-2.574c0.312-0.328,0.308-0.861-0.014-1.182l-2.088-2.088c-0.321-0.32-0.853-0.326-1.182-0.012
						c0,0-1.14,1.092-2.673,1.939c-0.336,0.188-0.336,0.188-0.336,0.188c-0.411,0.029-0.967-0.043-1.233-0.16
						c-0.269-0.117-1.021-0.424-1.043-0.5c0,0,0,0-0.012-0.074c-0.31-1.852-0.345-3.752-0.345-3.752C16.149,0.373,15.77,0,15.315,0
						h-2.95c-0.455,0-0.834,0.373-0.844,0.828c0,0-0.038,2.031-0.521,3.717c-0.031,0.104-0.031,0.104-0.031,0.104
						c-0.05,0.105-0.244,0.248-0.433,0.312c-0.188,0.066-1.046,0.258-1.5,0.25c0,0-0.038-0.002-0.428-0.217
						c-1.534-0.85-2.676-1.939-2.676-1.939C5.604,2.74,5.072,2.746,4.75,3.068L2.664,5.154c-0.321,0.32-0.328,0.854-0.013,1.182
						c0,0,1.002,1.045,2.092,2.574c0.198,0.277,0.198,0.277,0.198,0.277c0.077,0.291,0.031,0.764-0.102,1.051
						c-0.133,0.285-0.51,1.117-0.633,1.176c0,0,0,0-0.117,0.033c-1.685,0.484-3.263,0.52-3.263,0.52C0.373,11.977,0,12.357,0,12.812
						v2.951c0,0.453,0.373,0.834,0.827,0.844c0,0,1.448,0.029,3.301,0.342c0.091,0.014,0.091,0.014,0.091,0.014
						c0.093,0.025,0.25,0.283,0.35,0.572s0.366,1.293,0.298,1.631c0,0,0,0-0.23,0.322c-1.091,1.527-2.092,2.574-2.092,2.574
						c-0.315,0.328-0.31,0.859,0.013,1.182l2.087,2.088c0.322,0.32,0.854,0.326,1.182,0.012c0,0,1.141-1.092,2.675-1.939
						c0.384-0.215,0.406-0.215,0.406-0.215c0.455-0.01,0.98,0.045,1.169,0.125c0.188,0.08,0.761,0.383,0.843,0.533
						c0,0,0,0,0.042,0.152c0.484,1.684,0.52,3.26,0.52,3.26c0.009,0.457,0.388,0.828,0.843,0.828h2.951
						c0.456,0,0.836-0.371,0.845-0.828c0,0,0.032-1.445,0.342-3.299c0.02-0.104,0.02-0.104,0.02-0.104
						c0.028-0.105,0.266-0.262,0.526-0.348c0.261-0.088,1.293-0.355,1.746-0.338c0,0,0,0,0.371,0.207
						c1.535,0.85,2.675,1.939,2.675,1.939c0.328,0.314,0.86,0.309,1.182-0.012l2.088-2.088c0.321-0.322,0.326-0.854,0.013-1.184
						c0,0-1.003-1.043-2.092-2.572c-0.232-0.326-0.232-0.326-0.232-0.326c-0.07-0.336-0.026-0.84,0.096-1.113
						c0.121-0.273,0.434-1.043,0.505-1.062C23.356,16.961,23.356,16.961,23.427,16.949z M13.812,20.086
						c-3.211,0-5.813-2.6-5.813-5.811c0-3.213,2.603-5.814,5.813-5.814c3.21,0,5.812,2.602,5.812,5.814
						C19.623,17.486,17.021,20.086,13.812,20.086z"/>
				</g>
			</g>
		</g>
	</g>
</g>
</svg>
