<?xml version="1.0" encoding="utf-8"?>
<!-- Generator: Adobe Illustrator 16.0.0, SVG Export Plug-In . SVG Version: 6.00 Build 0)  -->
<!DOCTYPE svg PUBLIC "-//W3C//DTD SVG 1.1 Tiny//EN" "http://www.w3.org/Graphics/SVG/1.1/DTD/svg11-tiny.dtd">
<svg version="1.1" baseProfile="tiny" xmlns="http://www.w3.org/2000/svg" xmlns:xlink="http://www.w3.org/1999/xlink" x="0px"
	 y="0px" width="42.98px" height="42.98px" viewBox="0 0 42.98 42.98" xml:space="preserve">
<g id="Layer_2">
</g>
<g id="Layer_1">
	<g>
		<path fill="none" stroke="#FF3D33" stroke-width="3.5303" stroke-miterlimit="10" d="M29.13,15.45c0-7.56-6.13-13.68-13.68-13.68
			c-7.56,0-13.68,6.12-13.68,13.68c0,7.55,6.12,13.68,13.68,13.68c3.77,0,7.19-1.53,9.67-4l0.01-0.01
			C27.6,22.64,29.13,19.22,29.13,15.45z"/>
		<polygon fill="#FFFFFF" stroke="#FF3D33" stroke-width="3.5303" stroke-miterlimit="10" points="25.71,24.53 25.12,25.12 
			25.12,25.12 24.53,25.71 39.31,40.49 40.49,39.32 		"/>
		<path fill="#FFFFFF" stroke="#FF3D33" stroke-width="3.5303" stroke-miterlimit="10" d="M25.12,25.12L25.12,25.12
			C25.12,25.12,25.12,25.12,25.12,25.12z"/>
	</g>
</g>
</svg>
